HIERARCHY
ROOT Hips
{
	OFFSET -0.001795 -0.223333 0.028219
	CHANNELS 6 Xposition Yposition Zposition Zrotation Yrotation Xrotation 
	JOINT LeftUpLeg
	{
		OFFSET 0.069520 -0.091406 -0.006815
		CHANNELS 3 Zrotation Yrotation Xrotation
		JOINT LeftLeg
		{
			OFFSET 0.034277 -0.375199 -0.004496
			CHANNELS 3 Zrotation Yrotation Xrotation
			JOINT LeftFoot
			{
				OFFSET -0.013596 -0.397961 -0.043693
				CHANNELS 3 Zrotation Yrotation Xrotation
				JOINT LeftToe
				{
					OFFSET 0.026358 -0.055791 0.119288
					CHANNELS 3 Zrotation Yrotation Xrotation
					End Site
					{
						OFFSET 0.000000 0.000000 0.000000
					}
				}
			}
		}
	}
	JOINT RightUpLeg
	{
		OFFSET -0.067670 -0.090522 -0.004320
		CHANNELS 3 Zrotation Yrotation Xrotation
		JOINT RightLeg
		{
			OFFSET -0.038290 -0.382569 -0.008850
			CHANNELS 3 Zrotation Yrotation Xrotation
			JOINT RightFoot
			{
				OFFSET 0.015774 -0.398415 -0.042312
				CHANNELS 3 Zrotation Yrotation Xrotation
				JOINT RightToe
				{
					OFFSET -0.025372 -0.048144 0.123348
					CHANNELS 3 Zrotation Yrotation Xrotation
					End Site
					{
						OFFSET 0.000000 0.000000 0.000000
					}
				}
			}
		}
	}
	JOINT Spine
	{
		OFFSET -0.002533 0.108963 -0.026696
		CHANNELS 3 Zrotation Yrotation Xrotation
		JOINT Spine1
		{
			OFFSET 0.005487 0.135180 0.001092
			CHANNELS 3 Zrotation Yrotation Xrotation
			JOINT Spine2
			{
				OFFSET 0.001457 0.052922 0.025425
				CHANNELS 3 Zrotation Yrotation Xrotation
				JOINT Neck
				{
					OFFSET -0.002778 0.213870 -0.042857
					CHANNELS 3 Zrotation Yrotation Xrotation
					JOINT Head
					{
						OFFSET 0.005152 0.064970 0.051349
						CHANNELS 3 Zrotation Yrotation Xrotation
						End Site
						{
							OFFSET 0.000000 0.000000 0.000000
						}
					}
				}
				JOINT LeftShoulder
				{
					OFFSET 0.078845 0.121749 -0.034090
					CHANNELS 3 Zrotation Yrotation Xrotation
					JOINT LeftArm
					{
						OFFSET 0.090977 0.030469 -0.008868
						CHANNELS 3 Zrotation Yrotation Xrotation
						JOINT LeftForeArm
						{
							OFFSET 0.259612 -0.012772 -0.027456
							CHANNELS 3 Zrotation Yrotation Xrotation
							JOINT LeftHand
							{
								OFFSET 0.249234 0.008986 -0.001171
								CHANNELS 3 Zrotation Yrotation Xrotation
								End Site
								{
									OFFSET 0.000000 0.000000 0.000000
								}
							}
						}
					}
				}
				JOINT RightShoulder
				{
					OFFSET -0.081759 0.118833 -0.038615
					CHANNELS 3 Zrotation Yrotation Xrotation
					JOINT RightArm
					{
						OFFSET -0.096012 0.032551 -0.009143
						CHANNELS 3 Zrotation Yrotation Xrotation
						JOINT RightForeArm
						{
							OFFSET -0.253742 -0.013329 -0.021401
							CHANNELS 3 Zrotation Yrotation Xrotation
							JOINT RightHand
							{
								OFFSET -0.255298 0.007772 -0.005559
								CHANNELS 3 Zrotation Yrotation Xrotation
								End Site
								{
									OFFSET 0.000000 0.000000 0.000000
								}
							}
						}
					}
				}
			}
		}
	}
}
MOTION
Frames: 7
Frame Time: 0.050000
0.000000 0.941983 0.000000 0.057635 3.078609 7.270173 -3.278895 0.211433 0.795437 1.540111 0.291392 -9.874109 0.678641 5.200670 9.295718 0.000000 0.000000 0.000000 2.989633 0.101337 -1.642903 -1.115260 -0.241855 -7.170294 1.705299 1.537650 5.457062 0.000000 0.000000 0.000000 6.273155 0.222208 -4.767189 -0.388943 0.167697 0.236414 -3.584872 2.947299 6.011716 5.256631 -0.964323 -20.064126 0.000000 0.000000 0.000000 -20.104938 -8.728118 1.406263 -14.826316 8.489388 -2.141881 17.941450 -4.369745 -0.563315 0.000000 0.000000 0.000000 14.825978 4.114181 1.787203 16.115900 -8.869339 -2.434421 -14.172139 17.746162 -1.220195 0.000000 0.000000 0.000000 
-0.000863 0.941251 0.002313 -0.437533 3.039263 7.713024 -2.758037 0.191409 0.778791 1.674792 0.316144 -10.482959 0.761045 5.291748 9.170894 0.000000 0.000000 0.000000 3.393362 0.204262 -2.537865 -0.763729 -0.210623 -6.211809 1.635767 1.574014 5.041241 0.000000 0.000000 0.000000 7.978109 0.200359 -4.634588 -1.025515 0.429711 1.574543 -4.661253 3.958115 4.423742 6.052198 -0.960466 -22.067748 0.000000 0.000000 0.000000 -18.682898 -10.638047 2.137581 -15.217372 9.187259 -2.183431 17.278062 -1.999128 -0.282253 0.000000 0.000000 0.000000 16.386839 1.178937 0.486070 15.607511 -10.117478 -2.427693 -12.751661 19.695410 -1.142515 0.000000 0.000000 0.000000 
-0.002327 0.940173 0.004674 -0.455889 1.951424 7.852894 -2.231740 0.112433 0.282731 0.698848 0.295322 -9.448799 1.441921 6.163373 8.555418 0.000000 0.000000 0.000000 3.135160 0.270432 -3.088411 -0.305280 -0.194154 -5.306314 1.912522 2.469880 4.369758 0.000000 0.000000 0.000000 9.009533 0.259959 -5.081153 -2.241363 1.042209 0.039351 -4.215733 4.108008 6.514866 5.697605 -0.857560 -22.164212 0.000000 0.000000 0.000000 -17.528012 -10.826044 2.541788 -16.377362 10.669084 -2.617347 17.245531 -2.006935 -0.276005 0.000000 0.000000 0.000000 16.233284 2.755456 1.255610 16.988515 -11.163825 -2.820041 -13.596960 19.688099 -1.293028 0.000000 0.000000 0.000000 
-0.004816 0.939560 0.007166 -0.385257 2.134513 8.051147 -2.003545 0.116126 0.382342 0.502356 0.308523 -9.742478 1.353680 6.009684 8.510515 0.000000 0.000000 0.000000 3.210376 0.267574 -3.076348 -0.226023 -0.203325 -5.405571 1.808627 2.353566 4.150369 0.000000 0.000000 0.000000 9.222430 0.325537 -5.690213 -2.583221 1.196538 0.730001 -3.896125 3.980494 6.468904 5.161375 -0.465184 -23.069167 0.000000 0.000000 0.000000 -19.687485 -12.537789 3.363739 -16.233255 12.610079 -2.759042 19.083790 -0.907022 -0.161435 0.000000 0.000000 0.000000 18.203171 3.068300 1.420022 15.410859 -12.999312 -2.616365 -12.918940 20.233860 -1.269072 0.000000 0.000000 0.000000 
-0.008182 0.939301 0.009471 -0.246106 1.951433 7.792969 -1.652916 0.096684 0.347221 -0.021064 0.291929 -8.875064 1.520850 6.182157 8.185214 0.000000 0.000000 0.000000 3.002861 0.210015 -2.590231 0.255169 -0.235393 -5.509509 1.888870 2.598180 4.019269 0.000000 0.000000 0.000000 9.340620 0.342187 -5.718866 -2.150589 0.991816 0.884629 -4.548762 3.916145 6.513518 5.649867 -0.872396 -21.978373 0.000000 0.000000 0.000000 -20.452223 -12.974254 3.580037 -16.361753 13.366036 -2.858154 18.236563 -2.059841 -0.290025 0.000000 0.000000 0.000000 18.767785 3.725656 1.790992 16.636105 -13.852519 -2.960047 -12.370851 21.719345 -1.298458 0.000000 0.000000 0.000000 
-0.012146 0.938703 0.011401 -0.054064 1.500171 7.215204 -1.865156 0.029024 -0.323702 0.357554 0.192207 -6.253814 2.041039 6.772238 7.210682 0.000000 0.000000 0.000000 2.346925 0.118988 -1.735619 1.454486 -0.308757 -5.701813 2.100564 3.146356 3.873445 0.000000 0.000000 0.000000 9.539755 0.245885 -4.717344 -2.457666 1.137936 1.688219 -4.302306 3.412001 6.183351 5.221916 -0.646460 -22.631971 0.000000 0.000000 0.000000 -21.549149 -12.912862 3.753109 -19.019885 13.552547 -3.481856 17.964984 -4.009004 -0.506394 0.000000 0.000000 0.000000 19.460000 4.376860 1.950422 18.650501 -12.996315 -3.315353 -11.335236 22.424786 -1.186090 0.000000 0.000000 0.000000 
-0.016362 0.938207 0.012766 0.099208 0.666685 6.813673 -1.178690 -0.133223 -1.685517 -0.869288 0.164432 -2.764671 2.711736 7.673545 6.336205 0.000000 0.000000 0.000000 2.276223 0.026618 -0.976192 1.610920 -0.325884 -6.176443 2.462298 3.964923 3.842250 0.000000 0.000000 0.000000 9.715909 0.130719 -3.599914 -2.442357 1.139399 1.974548 -4.712286 3.885426 5.762653 5.600692 -0.871076 -22.251821 0.000000 0.000000 0.000000 -23.558035 -13.197822 3.790862 -21.517843 13.779577 -4.028807 16.935181 -6.827814 -0.788328 0.000000 0.000000 0.000000 21.484874 5.158117 2.485374 21.108753 -11.849791 -3.737683 -9.274408 23.683868 -0.877281 0.000000 0.000000 0.000000 
